<mxfile host="app.diagrams.net" modified="2023-12-07T18:56:52.376Z" agent="Mozilla/5.0 (Windows NT 10.0; Win64; x64) AppleWebKit/537.36 (KHTML, like Gecko) Chrome/117.0.0.0 Safari/537.36" version="22.1.5" etag="Y5zUl5YCictmcL01JeEI" type="device">
  <diagram id="9DOyHkeAdiVWgOx9bQjq" name="Page-1">
    <mxGraphModel dx="1649" dy="2743" grid="1" gridSize="10" guides="1" tooltips="1" connect="1" arrows="1" fold="1" page="1" pageScale="1" pageWidth="1000" pageHeight="700" math="0" shadow="0">
      <root>
        <mxCell id="0" />
        <mxCell id="1" parent="0" />
        <mxCell id="cndPCVQyq1sA_pVlq22v-225" value="" style="rounded=1;whiteSpace=wrap;html=1;" vertex="1" parent="1">
          <mxGeometry x="310" y="-350" width="1450" height="210" as="geometry" />
        </mxCell>
        <mxCell id="cndPCVQyq1sA_pVlq22v-172" value="" style="rounded=1;whiteSpace=wrap;html=1;" vertex="1" parent="1">
          <mxGeometry x="250" y="-628" width="1590" height="210" as="geometry" />
        </mxCell>
        <mxCell id="cndPCVQyq1sA_pVlq22v-87" value="B" style="text;html=1;strokeColor=none;fillColor=none;align=center;verticalAlign=middle;whiteSpace=wrap;rounded=0;strokeWidth=1;fontSize=40;fontStyle=1" vertex="1" parent="1">
          <mxGeometry x="965" y="-130" width="60" height="30" as="geometry" />
        </mxCell>
        <mxCell id="cndPCVQyq1sA_pVlq22v-88" value="A" style="text;html=1;strokeColor=none;fillColor=none;align=center;verticalAlign=middle;whiteSpace=wrap;rounded=0;strokeWidth=1;fontSize=40;fontStyle=1" vertex="1" parent="1">
          <mxGeometry x="965" y="-410" width="60" height="30" as="geometry" />
        </mxCell>
        <mxCell id="cndPCVQyq1sA_pVlq22v-108" style="edgeStyle=orthogonalEdgeStyle;rounded=0;orthogonalLoop=1;jettySize=auto;html=1;entryX=0;entryY=0.5;entryDx=0;entryDy=0;" edge="1" parent="1" source="cndPCVQyq1sA_pVlq22v-89" target="cndPCVQyq1sA_pVlq22v-95">
          <mxGeometry relative="1" as="geometry" />
        </mxCell>
        <mxCell id="cndPCVQyq1sA_pVlq22v-89" value="ResBlock&amp;nbsp;&lt;br style=&quot;font-size: 15px;&quot;&gt;(3*ResLayers)" style="rounded=1;whiteSpace=wrap;html=1;fillColor=#e1d5e7;strokeColor=#9673a6;flipV=1;flipH=1;fontSize=15;" vertex="1" parent="1">
          <mxGeometry x="840" y="-515.5" width="100" height="65" as="geometry" />
        </mxCell>
        <mxCell id="cndPCVQyq1sA_pVlq22v-194" value="" style="edgeStyle=orthogonalEdgeStyle;rounded=0;orthogonalLoop=1;jettySize=auto;html=1;" edge="1" parent="1" source="cndPCVQyq1sA_pVlq22v-90" target="cndPCVQyq1sA_pVlq22v-91">
          <mxGeometry relative="1" as="geometry" />
        </mxCell>
        <mxCell id="cndPCVQyq1sA_pVlq22v-90" value="ConvLayer" style="rounded=1;whiteSpace=wrap;html=1;fillColor=#fff2cc;strokeColor=#d6b656;flipV=1;flipH=1;fontSize=18;" vertex="1" parent="1">
          <mxGeometry x="275" y="-503" width="120" height="40" as="geometry" />
        </mxCell>
        <mxCell id="cndPCVQyq1sA_pVlq22v-137" style="edgeStyle=orthogonalEdgeStyle;rounded=0;orthogonalLoop=1;jettySize=auto;html=1;entryX=0.5;entryY=1;entryDx=0;entryDy=0;dashed=1;" edge="1" parent="1" source="cndPCVQyq1sA_pVlq22v-91" target="cndPCVQyq1sA_pVlq22v-132">
          <mxGeometry relative="1" as="geometry" />
        </mxCell>
        <mxCell id="cndPCVQyq1sA_pVlq22v-91" value="ConvLayer" style="rounded=1;whiteSpace=wrap;html=1;fillColor=#fff2cc;strokeColor=#d6b656;flipV=1;flipH=1;fontSize=18;" vertex="1" parent="1">
          <mxGeometry x="425" y="-503" width="120" height="40" as="geometry" />
        </mxCell>
        <mxCell id="cndPCVQyq1sA_pVlq22v-105" style="edgeStyle=orthogonalEdgeStyle;rounded=0;orthogonalLoop=1;jettySize=auto;html=1;entryX=0;entryY=0.5;entryDx=0;entryDy=0;" edge="1" parent="1" source="cndPCVQyq1sA_pVlq22v-92" target="cndPCVQyq1sA_pVlq22v-93">
          <mxGeometry relative="1" as="geometry" />
        </mxCell>
        <mxCell id="cndPCVQyq1sA_pVlq22v-92" value="ConvLayer" style="rounded=1;whiteSpace=wrap;html=1;fillColor=#fff2cc;strokeColor=#d6b656;flipV=1;flipH=1;fontSize=18;" vertex="1" parent="1">
          <mxGeometry x="575" y="-503" width="120" height="40" as="geometry" />
        </mxCell>
        <mxCell id="cndPCVQyq1sA_pVlq22v-199" style="edgeStyle=orthogonalEdgeStyle;rounded=0;orthogonalLoop=1;jettySize=auto;html=1;" edge="1" parent="1" source="cndPCVQyq1sA_pVlq22v-93" target="cndPCVQyq1sA_pVlq22v-89">
          <mxGeometry relative="1" as="geometry" />
        </mxCell>
        <mxCell id="cndPCVQyq1sA_pVlq22v-93" value="MaxPool" style="rounded=1;whiteSpace=wrap;html=1;fillColor=#dae8fc;strokeColor=#6c8ebf;flipV=1;flipH=1;fontSize=18;" vertex="1" parent="1">
          <mxGeometry x="735" y="-498" width="80" height="30" as="geometry" />
        </mxCell>
        <mxCell id="cndPCVQyq1sA_pVlq22v-109" style="edgeStyle=orthogonalEdgeStyle;rounded=0;orthogonalLoop=1;jettySize=auto;html=1;entryX=0;entryY=0.5;entryDx=0;entryDy=0;" edge="1" parent="1" source="cndPCVQyq1sA_pVlq22v-95" target="cndPCVQyq1sA_pVlq22v-96">
          <mxGeometry relative="1" as="geometry" />
        </mxCell>
        <mxCell id="cndPCVQyq1sA_pVlq22v-95" value="ResBlock&amp;nbsp;&lt;br style=&quot;font-size: 15px;&quot;&gt;(4*ResLayers)" style="rounded=1;whiteSpace=wrap;html=1;fillColor=#e1d5e7;strokeColor=#9673a6;flipV=1;flipH=1;fontSize=15;" vertex="1" parent="1">
          <mxGeometry x="975" y="-515.5" width="100" height="65" as="geometry" />
        </mxCell>
        <mxCell id="cndPCVQyq1sA_pVlq22v-96" value="ResBlock&amp;nbsp;&lt;br style=&quot;font-size: 15px;&quot;&gt;(6*ResLayers)" style="rounded=1;whiteSpace=wrap;html=1;fillColor=#e1d5e7;strokeColor=#9673a6;flipV=1;flipH=1;fontSize=15;" vertex="1" parent="1">
          <mxGeometry x="1105" y="-515.5" width="100" height="65" as="geometry" />
        </mxCell>
        <mxCell id="cndPCVQyq1sA_pVlq22v-97" value="ResBlock&amp;nbsp;&lt;br style=&quot;font-size: 15px;&quot;&gt;(3*ResLayers)" style="rounded=1;whiteSpace=wrap;html=1;fillColor=#e1d5e7;strokeColor=#9673a6;flipV=1;flipH=1;fontSize=15;" vertex="1" parent="1">
          <mxGeometry x="1235" y="-515.5" width="100" height="65" as="geometry" />
        </mxCell>
        <mxCell id="cndPCVQyq1sA_pVlq22v-99" value="Linear" style="rounded=1;whiteSpace=wrap;html=1;fillColor=#d5e8d4;strokeColor=#82b366;flipV=1;flipH=1;fontSize=18;" vertex="1" parent="1">
          <mxGeometry x="1695" y="-503" width="120" height="40" as="geometry" />
        </mxCell>
        <mxCell id="cndPCVQyq1sA_pVlq22v-100" value="BatchNorm" style="rounded=1;whiteSpace=wrap;html=1;flipV=1;flipH=1;fillColor=#f5f5f5;fontColor=#333333;strokeColor=#666666;fontSize=15;" vertex="1" parent="1">
          <mxGeometry x="1475" y="-498" width="80" height="30" as="geometry" />
        </mxCell>
        <mxCell id="cndPCVQyq1sA_pVlq22v-101" value="Adaptive&lt;br style=&quot;font-size: 14px;&quot;&gt;ConcatPool" style="rounded=1;whiteSpace=wrap;html=1;fillColor=#dae8fc;strokeColor=#6c8ebf;flipV=1;flipH=1;fontSize=14;" vertex="1" parent="1">
          <mxGeometry x="1365" y="-503" width="80" height="40" as="geometry" />
        </mxCell>
        <mxCell id="cndPCVQyq1sA_pVlq22v-102" value="Dropout" style="rounded=1;whiteSpace=wrap;html=1;fillColor=#f5f5f5;strokeColor=#666666;flipV=1;flipH=1;fontColor=#333333;fontSize=18;" vertex="1" parent="1">
          <mxGeometry x="1585" y="-498" width="80" height="30" as="geometry" />
        </mxCell>
        <mxCell id="cndPCVQyq1sA_pVlq22v-110" style="edgeStyle=orthogonalEdgeStyle;rounded=0;orthogonalLoop=1;jettySize=auto;html=1;entryX=0;entryY=0.5;entryDx=0;entryDy=0;" edge="1" parent="1" source="cndPCVQyq1sA_pVlq22v-96" target="cndPCVQyq1sA_pVlq22v-97">
          <mxGeometry relative="1" as="geometry">
            <mxPoint x="1235" y="-484" as="targetPoint" />
          </mxGeometry>
        </mxCell>
        <mxCell id="cndPCVQyq1sA_pVlq22v-114" style="edgeStyle=orthogonalEdgeStyle;rounded=0;orthogonalLoop=1;jettySize=auto;html=1;entryX=0;entryY=0.5;entryDx=0;entryDy=0;" edge="1" parent="1" source="cndPCVQyq1sA_pVlq22v-97" target="cndPCVQyq1sA_pVlq22v-101">
          <mxGeometry relative="1" as="geometry" />
        </mxCell>
        <mxCell id="cndPCVQyq1sA_pVlq22v-115" style="edgeStyle=orthogonalEdgeStyle;rounded=0;orthogonalLoop=1;jettySize=auto;html=1;entryX=0;entryY=0.5;entryDx=0;entryDy=0;" edge="1" parent="1" source="cndPCVQyq1sA_pVlq22v-101" target="cndPCVQyq1sA_pVlq22v-100">
          <mxGeometry relative="1" as="geometry" />
        </mxCell>
        <mxCell id="cndPCVQyq1sA_pVlq22v-126" style="edgeStyle=orthogonalEdgeStyle;rounded=0;orthogonalLoop=1;jettySize=auto;html=1;entryX=0;entryY=0.5;entryDx=0;entryDy=0;" edge="1" parent="1">
          <mxGeometry relative="1" as="geometry">
            <mxPoint x="545" y="-483.15" as="sourcePoint" />
            <mxPoint x="575" y="-483.15" as="targetPoint" />
          </mxGeometry>
        </mxCell>
        <mxCell id="cndPCVQyq1sA_pVlq22v-127" style="edgeStyle=orthogonalEdgeStyle;rounded=0;orthogonalLoop=1;jettySize=auto;html=1;entryX=0;entryY=0.5;entryDx=0;entryDy=0;" edge="1" parent="1">
          <mxGeometry relative="1" as="geometry">
            <mxPoint x="395" y="-483.15" as="sourcePoint" />
            <mxPoint x="425" y="-483.15" as="targetPoint" />
          </mxGeometry>
        </mxCell>
        <mxCell id="cndPCVQyq1sA_pVlq22v-128" style="edgeStyle=orthogonalEdgeStyle;rounded=0;orthogonalLoop=1;jettySize=auto;html=1;entryX=0;entryY=0.5;entryDx=0;entryDy=0;" edge="1" parent="1">
          <mxGeometry relative="1" as="geometry">
            <mxPoint x="1555" y="-483.17" as="sourcePoint" />
            <mxPoint x="1585" y="-483.17" as="targetPoint" />
          </mxGeometry>
        </mxCell>
        <mxCell id="cndPCVQyq1sA_pVlq22v-129" style="edgeStyle=orthogonalEdgeStyle;rounded=0;orthogonalLoop=1;jettySize=auto;html=1;exitX=0.5;exitY=1;exitDx=0;exitDy=0;" edge="1" parent="1" source="cndPCVQyq1sA_pVlq22v-99" target="cndPCVQyq1sA_pVlq22v-99">
          <mxGeometry relative="1" as="geometry" />
        </mxCell>
        <mxCell id="cndPCVQyq1sA_pVlq22v-130" style="edgeStyle=orthogonalEdgeStyle;rounded=0;orthogonalLoop=1;jettySize=auto;html=1;entryX=0;entryY=0.5;entryDx=0;entryDy=0;" edge="1" parent="1">
          <mxGeometry relative="1" as="geometry">
            <mxPoint x="1665" y="-483.17" as="sourcePoint" />
            <mxPoint x="1695" y="-483.17" as="targetPoint" />
          </mxGeometry>
        </mxCell>
        <mxCell id="cndPCVQyq1sA_pVlq22v-132" value="" style="rounded=1;whiteSpace=wrap;html=1;fillColor=#fff2cc;strokeColor=#d6b656;flipV=1;flipH=1;" vertex="1" parent="1">
          <mxGeometry x="345" y="-578" width="280" height="40" as="geometry" />
        </mxCell>
        <mxCell id="cndPCVQyq1sA_pVlq22v-134" value="Conv1D" style="rounded=1;whiteSpace=wrap;html=1;fillColor=#ffe6cc;strokeColor=#d79b00;flipV=1;flipH=1;fontSize=14;" vertex="1" parent="1">
          <mxGeometry x="355" y="-568" width="80" height="20" as="geometry" />
        </mxCell>
        <mxCell id="cndPCVQyq1sA_pVlq22v-135" value="BatchNorm" style="rounded=1;whiteSpace=wrap;html=1;fillColor=#f5f5f5;strokeColor=#666666;flipV=1;flipH=1;fontColor=#333333;fontSize=14;" vertex="1" parent="1">
          <mxGeometry x="445" y="-568" width="80" height="20" as="geometry" />
        </mxCell>
        <mxCell id="cndPCVQyq1sA_pVlq22v-136" value="ReLU" style="rounded=1;whiteSpace=wrap;html=1;fillColor=#ffe6cc;strokeColor=#d79b00;flipV=1;flipH=1;fontSize=14;" vertex="1" parent="1">
          <mxGeometry x="535" y="-568" width="80" height="20" as="geometry" />
        </mxCell>
        <mxCell id="cndPCVQyq1sA_pVlq22v-139" value="" style="rounded=1;whiteSpace=wrap;html=1;fillColor=#dae8fc;strokeColor=#6c8ebf;flipV=1;flipH=1;" vertex="1" parent="1">
          <mxGeometry x="1345" y="-602" width="165" height="60" as="geometry" />
        </mxCell>
        <mxCell id="cndPCVQyq1sA_pVlq22v-140" value="AvgPool" style="rounded=1;whiteSpace=wrap;html=1;fillColor=#dae8fc;strokeColor=#6c8ebf;flipV=1;flipH=1;fontSize=14;" vertex="1" parent="1">
          <mxGeometry x="1365" y="-595" width="80" height="20" as="geometry" />
        </mxCell>
        <mxCell id="cndPCVQyq1sA_pVlq22v-141" value="MaxPool" style="rounded=1;whiteSpace=wrap;html=1;fillColor=#dae8fc;strokeColor=#6c8ebf;flipV=1;flipH=1;fontSize=14;" vertex="1" parent="1">
          <mxGeometry x="1365" y="-568" width="80" height="20" as="geometry" />
        </mxCell>
        <mxCell id="cndPCVQyq1sA_pVlq22v-143" value="" style="rounded=1;whiteSpace=wrap;html=1;fillColor=#e1d5e7;strokeColor=#9673a6;flipV=1;flipH=1;" vertex="1" parent="1">
          <mxGeometry x="695" y="-608" width="410" height="70" as="geometry" />
        </mxCell>
        <mxCell id="cndPCVQyq1sA_pVlq22v-151" style="edgeStyle=orthogonalEdgeStyle;rounded=0;orthogonalLoop=1;jettySize=auto;html=1;entryX=0;entryY=0.5;entryDx=0;entryDy=0;endSize=3;" edge="1" parent="1" source="cndPCVQyq1sA_pVlq22v-144" target="cndPCVQyq1sA_pVlq22v-145">
          <mxGeometry relative="1" as="geometry" />
        </mxCell>
        <mxCell id="cndPCVQyq1sA_pVlq22v-144" value="ConvLayer" style="rounded=1;whiteSpace=wrap;html=1;fillColor=#ffe6cc;strokeColor=#d79b00;flipV=1;flipH=1;fontSize=14;" vertex="1" parent="1">
          <mxGeometry x="715" y="-598" width="80" height="20" as="geometry" />
        </mxCell>
        <mxCell id="cndPCVQyq1sA_pVlq22v-145" value="ConvLayer" style="rounded=1;whiteSpace=wrap;html=1;fillColor=#ffe6cc;strokeColor=#d79b00;flipV=1;flipH=1;fontSize=14;" vertex="1" parent="1">
          <mxGeometry x="805" y="-598" width="80" height="20" as="geometry" />
        </mxCell>
        <mxCell id="cndPCVQyq1sA_pVlq22v-146" value="ConvLayer" style="rounded=1;whiteSpace=wrap;html=1;fillColor=#ffe6cc;strokeColor=#d79b00;flipV=1;flipH=1;fontSize=14;" vertex="1" parent="1">
          <mxGeometry x="895" y="-598" width="80" height="20" as="geometry" />
        </mxCell>
        <mxCell id="cndPCVQyq1sA_pVlq22v-147" value="ConvLayer" style="rounded=1;whiteSpace=wrap;html=1;fillColor=#ffe6cc;strokeColor=#d79b00;flipV=1;flipH=1;fontSize=14;" vertex="1" parent="1">
          <mxGeometry x="715" y="-563" width="80" height="20" as="geometry" />
        </mxCell>
        <mxCell id="cndPCVQyq1sA_pVlq22v-152" style="edgeStyle=orthogonalEdgeStyle;rounded=0;orthogonalLoop=1;jettySize=auto;html=1;entryX=0;entryY=0.5;entryDx=0;entryDy=0;endSize=3;" edge="1" parent="1">
          <mxGeometry relative="1" as="geometry">
            <mxPoint x="885" y="-588.11" as="sourcePoint" />
            <mxPoint x="895" y="-588.11" as="targetPoint" />
            <Array as="points">
              <mxPoint x="895" y="-587.99" />
            </Array>
          </mxGeometry>
        </mxCell>
        <mxCell id="cndPCVQyq1sA_pVlq22v-158" value="" style="endArrow=none;html=1;rounded=0;" edge="1" parent="1">
          <mxGeometry width="50" height="50" relative="1" as="geometry">
            <mxPoint x="795" y="-553.19" as="sourcePoint" />
            <mxPoint x="995" y="-553.0699999999999" as="targetPoint" />
          </mxGeometry>
        </mxCell>
        <mxCell id="cndPCVQyq1sA_pVlq22v-159" value="ReLU" style="rounded=1;whiteSpace=wrap;html=1;fillColor=#e1d5e7;strokeColor=#9673a6;flipV=1;flipH=1;fontSize=14;" vertex="1" parent="1">
          <mxGeometry x="1015" y="-583" width="80" height="20" as="geometry" />
        </mxCell>
        <mxCell id="cndPCVQyq1sA_pVlq22v-162" value="" style="endArrow=none;html=1;rounded=0;" edge="1" parent="1">
          <mxGeometry width="50" height="50" relative="1" as="geometry">
            <mxPoint x="705" y="-553" as="sourcePoint" />
            <mxPoint x="705" y="-588" as="targetPoint" />
          </mxGeometry>
        </mxCell>
        <mxCell id="cndPCVQyq1sA_pVlq22v-166" value="" style="endArrow=none;html=1;rounded=0;" edge="1" parent="1">
          <mxGeometry width="50" height="50" relative="1" as="geometry">
            <mxPoint x="995" y="-553" as="sourcePoint" />
            <mxPoint x="995" y="-573" as="targetPoint" />
          </mxGeometry>
        </mxCell>
        <mxCell id="cndPCVQyq1sA_pVlq22v-169" value="&lt;font style=&quot;font-size: 12px;&quot;&gt;+&lt;/font&gt;" style="ellipse;whiteSpace=wrap;html=1;aspect=fixed;flipV=1;flipH=1;fontSize=12;fillColor=#e1d5e7;strokeColor=#9673a6;align=center;verticalAlign=middle;spacingTop=0;spacing=2;" vertex="1" parent="1">
          <mxGeometry x="990" y="-578" width="10" height="10" as="geometry" />
        </mxCell>
        <mxCell id="cndPCVQyq1sA_pVlq22v-183" value="" style="endArrow=classic;html=1;rounded=0;entryX=0;entryY=0.5;entryDx=0;entryDy=0;exitX=1;exitY=0.5;exitDx=0;exitDy=0;endSize=3;" edge="1" parent="1" source="cndPCVQyq1sA_pVlq22v-169" target="cndPCVQyq1sA_pVlq22v-159">
          <mxGeometry width="50" height="50" relative="1" as="geometry">
            <mxPoint x="965" y="-578" as="sourcePoint" />
            <mxPoint x="1015" y="-628" as="targetPoint" />
          </mxGeometry>
        </mxCell>
        <mxCell id="cndPCVQyq1sA_pVlq22v-185" value="" style="endArrow=classic;html=1;rounded=0;exitX=1;exitY=0.5;exitDx=0;exitDy=0;entryX=1;entryY=0.5;entryDx=0;entryDy=0;endSize=3;" edge="1" parent="1" source="cndPCVQyq1sA_pVlq22v-159" target="cndPCVQyq1sA_pVlq22v-143">
          <mxGeometry width="50" height="50" relative="1" as="geometry">
            <mxPoint x="1095" y="-538" as="sourcePoint" />
            <mxPoint x="1145" y="-588" as="targetPoint" />
          </mxGeometry>
        </mxCell>
        <mxCell id="cndPCVQyq1sA_pVlq22v-187" value="" style="endArrow=classic;html=1;rounded=0;entryX=0;entryY=0.5;entryDx=0;entryDy=0;endSize=3;" edge="1" parent="1" target="cndPCVQyq1sA_pVlq22v-135">
          <mxGeometry width="50" height="50" relative="1" as="geometry">
            <mxPoint x="435" y="-558" as="sourcePoint" />
            <mxPoint x="485" y="-608" as="targetPoint" />
          </mxGeometry>
        </mxCell>
        <mxCell id="cndPCVQyq1sA_pVlq22v-188" value="" style="endArrow=classic;html=1;rounded=0;entryX=0;entryY=0.5;entryDx=0;entryDy=0;endSize=3;" edge="1" parent="1">
          <mxGeometry width="50" height="50" relative="1" as="geometry">
            <mxPoint x="525" y="-558.06" as="sourcePoint" />
            <mxPoint x="535" y="-558.06" as="targetPoint" />
          </mxGeometry>
        </mxCell>
        <mxCell id="cndPCVQyq1sA_pVlq22v-190" value="" style="endArrow=classic;html=1;rounded=0;exitX=0;exitY=0.5;exitDx=0;exitDy=0;entryX=0;entryY=0.5;entryDx=0;entryDy=0;endSize=3;" edge="1" parent="1" source="cndPCVQyq1sA_pVlq22v-132" target="cndPCVQyq1sA_pVlq22v-134">
          <mxGeometry width="50" height="50" relative="1" as="geometry">
            <mxPoint x="345" y="-548" as="sourcePoint" />
            <mxPoint x="395" y="-598" as="targetPoint" />
          </mxGeometry>
        </mxCell>
        <mxCell id="cndPCVQyq1sA_pVlq22v-192" style="edgeStyle=orthogonalEdgeStyle;rounded=0;orthogonalLoop=1;jettySize=auto;html=1;entryX=0;entryY=0.5;entryDx=0;entryDy=0;endSize=3;" edge="1" parent="1">
          <mxGeometry relative="1" as="geometry">
            <mxPoint x="1355" y="-558.1800000000001" as="sourcePoint" />
            <mxPoint x="1365" y="-558.1800000000001" as="targetPoint" />
          </mxGeometry>
        </mxCell>
        <mxCell id="cndPCVQyq1sA_pVlq22v-193" style="edgeStyle=orthogonalEdgeStyle;rounded=0;orthogonalLoop=1;jettySize=auto;html=1;entryX=0;entryY=0.5;entryDx=0;entryDy=0;endSize=3;" edge="1" parent="1">
          <mxGeometry relative="1" as="geometry">
            <mxPoint x="615" y="-558.16" as="sourcePoint" />
            <mxPoint x="625" y="-558.16" as="targetPoint" />
          </mxGeometry>
        </mxCell>
        <mxCell id="cndPCVQyq1sA_pVlq22v-195" style="edgeStyle=orthogonalEdgeStyle;rounded=0;orthogonalLoop=1;jettySize=auto;html=1;entryX=0;entryY=0.5;entryDx=0;entryDy=0;exitX=0;exitY=0.69;exitDx=0;exitDy=0;exitPerimeter=0;" edge="1" parent="1" source="cndPCVQyq1sA_pVlq22v-172">
          <mxGeometry relative="1" as="geometry">
            <mxPoint x="255" y="-483" as="sourcePoint" />
            <mxPoint x="275" y="-483.12" as="targetPoint" />
          </mxGeometry>
        </mxCell>
        <mxCell id="cndPCVQyq1sA_pVlq22v-196" style="edgeStyle=orthogonalEdgeStyle;rounded=0;orthogonalLoop=1;jettySize=auto;html=1;entryX=0.999;entryY=0.688;entryDx=0;entryDy=0;entryPerimeter=0;" edge="1" parent="1" target="cndPCVQyq1sA_pVlq22v-172">
          <mxGeometry relative="1" as="geometry">
            <mxPoint x="1815" y="-483" as="sourcePoint" />
            <mxPoint x="1835" y="-483.12" as="targetPoint" />
          </mxGeometry>
        </mxCell>
        <mxCell id="cndPCVQyq1sA_pVlq22v-197" value="" style="endArrow=none;html=1;rounded=0;" edge="1" parent="1">
          <mxGeometry width="50" height="50" relative="1" as="geometry">
            <mxPoint x="994.89" y="-578" as="sourcePoint" />
            <mxPoint x="995" y="-588" as="targetPoint" />
          </mxGeometry>
        </mxCell>
        <mxCell id="cndPCVQyq1sA_pVlq22v-198" value="" style="endArrow=none;html=1;rounded=0;" edge="1" parent="1">
          <mxGeometry width="50" height="50" relative="1" as="geometry">
            <mxPoint x="995" y="-588" as="sourcePoint" />
            <mxPoint x="975.11" y="-588" as="targetPoint" />
          </mxGeometry>
        </mxCell>
        <mxCell id="cndPCVQyq1sA_pVlq22v-201" value="" style="endArrow=none;html=1;rounded=0;" edge="1" parent="1">
          <mxGeometry width="50" height="50" relative="1" as="geometry">
            <mxPoint x="695" y="-573.19" as="sourcePoint" />
            <mxPoint x="705" y="-573.19" as="targetPoint" />
          </mxGeometry>
        </mxCell>
        <mxCell id="cndPCVQyq1sA_pVlq22v-202" style="edgeStyle=orthogonalEdgeStyle;rounded=0;orthogonalLoop=1;jettySize=auto;html=1;entryX=0;entryY=0.5;entryDx=0;entryDy=0;endSize=3;" edge="1" parent="1">
          <mxGeometry relative="1" as="geometry">
            <mxPoint x="705" y="-588.19" as="sourcePoint" />
            <mxPoint x="715" y="-588.19" as="targetPoint" />
          </mxGeometry>
        </mxCell>
        <mxCell id="cndPCVQyq1sA_pVlq22v-203" style="edgeStyle=orthogonalEdgeStyle;rounded=0;orthogonalLoop=1;jettySize=auto;html=1;entryX=0;entryY=0.5;entryDx=0;entryDy=0;endSize=3;" edge="1" parent="1">
          <mxGeometry relative="1" as="geometry">
            <mxPoint x="705" y="-553.19" as="sourcePoint" />
            <mxPoint x="715" y="-553.19" as="targetPoint" />
          </mxGeometry>
        </mxCell>
        <mxCell id="cndPCVQyq1sA_pVlq22v-205" value="" style="endArrow=classic;html=1;rounded=0;exitX=0.5;exitY=0;exitDx=0;exitDy=0;entryX=0.525;entryY=-0.003;entryDx=0;entryDy=0;entryPerimeter=0;dashed=1;" edge="1" parent="1" source="cndPCVQyq1sA_pVlq22v-89" target="cndPCVQyq1sA_pVlq22v-143">
          <mxGeometry width="50" height="50" relative="1" as="geometry">
            <mxPoint x="855" y="-658" as="sourcePoint" />
            <mxPoint x="905" y="-708" as="targetPoint" />
          </mxGeometry>
        </mxCell>
        <mxCell id="cndPCVQyq1sA_pVlq22v-207" value="ConvLayer" style="text;strokeColor=none;fillColor=none;align=left;verticalAlign=middle;spacingLeft=4;spacingRight=4;overflow=hidden;points=[[0,0.5],[1,0.5]];portConstraint=eastwest;rotatable=0;whiteSpace=wrap;html=1;" vertex="1" parent="1">
          <mxGeometry x="345" y="-600" width="80" height="30" as="geometry" />
        </mxCell>
        <mxCell id="cndPCVQyq1sA_pVlq22v-208" value="ResLayer" style="text;strokeColor=none;fillColor=none;align=left;verticalAlign=middle;spacingLeft=4;spacingRight=4;overflow=hidden;points=[[0,0.5],[1,0.5]];portConstraint=eastwest;rotatable=0;whiteSpace=wrap;html=1;" vertex="1" parent="1">
          <mxGeometry x="695" y="-630" width="80" height="30" as="geometry" />
        </mxCell>
        <mxCell id="cndPCVQyq1sA_pVlq22v-211" style="edgeStyle=orthogonalEdgeStyle;rounded=0;orthogonalLoop=1;jettySize=auto;html=1;entryX=0;entryY=0.5;entryDx=0;entryDy=0;endSize=3;" edge="1" parent="1">
          <mxGeometry relative="1" as="geometry">
            <mxPoint x="1355" y="-583" as="sourcePoint" />
            <mxPoint x="1365" y="-583" as="targetPoint" />
          </mxGeometry>
        </mxCell>
        <mxCell id="cndPCVQyq1sA_pVlq22v-213" value="" style="endArrow=none;html=1;rounded=0;" edge="1" parent="1">
          <mxGeometry width="50" height="50" relative="1" as="geometry">
            <mxPoint x="1355" y="-558" as="sourcePoint" />
            <mxPoint x="1355" y="-583" as="targetPoint" />
          </mxGeometry>
        </mxCell>
        <mxCell id="cndPCVQyq1sA_pVlq22v-214" value="" style="endArrow=none;html=1;rounded=0;exitX=0.998;exitY=0.468;exitDx=0;exitDy=0;exitPerimeter=0;" edge="1" parent="1">
          <mxGeometry width="50" height="50" relative="1" as="geometry">
            <mxPoint x="1345" y="-570" as="sourcePoint" />
            <mxPoint x="1355" y="-570" as="targetPoint" />
          </mxGeometry>
        </mxCell>
        <mxCell id="cndPCVQyq1sA_pVlq22v-216" value="" style="endArrow=none;html=1;rounded=0;entryX=0.005;entryY=0.729;entryDx=0;entryDy=0;entryPerimeter=0;exitX=0;exitY=0.714;exitDx=0;exitDy=0;exitPerimeter=0;" edge="1" parent="1">
          <mxGeometry width="50" height="50" relative="1" as="geometry">
            <mxPoint x="1475" y="-558.03" as="sourcePoint" />
            <mxPoint x="1445" y="-558.03" as="targetPoint" />
          </mxGeometry>
        </mxCell>
        <mxCell id="cndPCVQyq1sA_pVlq22v-217" value="" style="endArrow=none;html=1;rounded=0;entryX=0.005;entryY=0.729;entryDx=0;entryDy=0;entryPerimeter=0;exitX=0;exitY=0.714;exitDx=0;exitDy=0;exitPerimeter=0;" edge="1" parent="1">
          <mxGeometry width="50" height="50" relative="1" as="geometry">
            <mxPoint x="1475" y="-585.03" as="sourcePoint" />
            <mxPoint x="1445" y="-585.03" as="targetPoint" />
          </mxGeometry>
        </mxCell>
        <mxCell id="cndPCVQyq1sA_pVlq22v-218" value="Concat" style="rounded=1;whiteSpace=wrap;html=1;fontSize=12;fillColor=#dae8fc;strokeColor=#6c8ebf;" vertex="1" parent="1">
          <mxGeometry x="1450" y="-578.5" width="50" height="13" as="geometry" />
        </mxCell>
        <mxCell id="cndPCVQyq1sA_pVlq22v-220" value="" style="endArrow=classic;html=1;rounded=0;endSize=3;" edge="1" parent="1">
          <mxGeometry width="50" height="50" relative="1" as="geometry">
            <mxPoint x="1474.95" y="-557.5" as="sourcePoint" />
            <mxPoint x="1475.04" y="-565.5" as="targetPoint" />
          </mxGeometry>
        </mxCell>
        <mxCell id="cndPCVQyq1sA_pVlq22v-221" value="" style="endArrow=classic;html=1;rounded=0;endSize=3;" edge="1" parent="1">
          <mxGeometry width="50" height="50" relative="1" as="geometry">
            <mxPoint x="1474.96" y="-585" as="sourcePoint" />
            <mxPoint x="1475.05" y="-578" as="targetPoint" />
          </mxGeometry>
        </mxCell>
        <mxCell id="cndPCVQyq1sA_pVlq22v-223" value="" style="endArrow=classic;html=1;rounded=0;endSize=3;" edge="1" parent="1">
          <mxGeometry width="50" height="50" relative="1" as="geometry">
            <mxPoint x="1500" y="-572.11" as="sourcePoint" />
            <mxPoint x="1510" y="-572.11" as="targetPoint" />
          </mxGeometry>
        </mxCell>
        <mxCell id="cndPCVQyq1sA_pVlq22v-224" value="" style="endArrow=classic;html=1;rounded=0;dashed=1;entryX=0.666;entryY=0.002;entryDx=0;entryDy=0;entryPerimeter=0;" edge="1" parent="1" target="cndPCVQyq1sA_pVlq22v-139">
          <mxGeometry width="50" height="50" relative="1" as="geometry">
            <mxPoint x="1400" y="-503" as="sourcePoint" />
            <mxPoint x="1400" y="-540" as="targetPoint" />
          </mxGeometry>
        </mxCell>
        <mxCell id="cndPCVQyq1sA_pVlq22v-227" value="AdaptiveConcatPool" style="text;strokeColor=none;fillColor=none;align=left;verticalAlign=middle;spacingLeft=4;spacingRight=4;overflow=hidden;points=[[0,0.5],[1,0.5]];portConstraint=eastwest;rotatable=0;whiteSpace=wrap;html=1;" vertex="1" parent="1">
          <mxGeometry x="1345" y="-625" width="125" height="30" as="geometry" />
        </mxCell>
        <mxCell id="cndPCVQyq1sA_pVlq22v-228" style="edgeStyle=orthogonalEdgeStyle;rounded=0;orthogonalLoop=1;jettySize=auto;html=1;entryX=0;entryY=0.5;entryDx=0;entryDy=0;exitX=0;exitY=0.69;exitDx=0;exitDy=0;exitPerimeter=0;" edge="1" parent="1">
          <mxGeometry relative="1" as="geometry">
            <mxPoint x="310" y="-200.14" as="sourcePoint" />
            <mxPoint x="335" y="-200.26" as="targetPoint" />
          </mxGeometry>
        </mxCell>
        <mxCell id="cndPCVQyq1sA_pVlq22v-259" style="edgeStyle=orthogonalEdgeStyle;rounded=0;orthogonalLoop=1;jettySize=auto;html=1;strokeWidth=1;" edge="1" parent="1" source="cndPCVQyq1sA_pVlq22v-229" target="cndPCVQyq1sA_pVlq22v-230">
          <mxGeometry relative="1" as="geometry" />
        </mxCell>
        <mxCell id="cndPCVQyq1sA_pVlq22v-229" value="Conv1D" style="rounded=1;whiteSpace=wrap;html=1;fillColor=#fff2cc;strokeColor=#d6b656;flipV=1;flipH=1;fontSize=18;" vertex="1" parent="1">
          <mxGeometry x="335" y="-220" width="120" height="40" as="geometry" />
        </mxCell>
        <mxCell id="cndPCVQyq1sA_pVlq22v-260" style="edgeStyle=orthogonalEdgeStyle;rounded=0;orthogonalLoop=1;jettySize=auto;html=1;exitX=1;exitY=0.5;exitDx=0;exitDy=0;" edge="1" parent="1" source="cndPCVQyq1sA_pVlq22v-230" target="cndPCVQyq1sA_pVlq22v-245">
          <mxGeometry relative="1" as="geometry" />
        </mxCell>
        <mxCell id="cndPCVQyq1sA_pVlq22v-230" value="S4&lt;br&gt;Block" style="rounded=1;whiteSpace=wrap;html=1;fillColor=#f8cecc;strokeColor=#b85450;flipV=1;flipH=1;fontSize=15;" vertex="1" parent="1">
          <mxGeometry x="505" y="-232.5" width="100" height="65" as="geometry" />
        </mxCell>
        <mxCell id="cndPCVQyq1sA_pVlq22v-231" value="Linear" style="rounded=1;whiteSpace=wrap;html=1;fillColor=#d5e8d4;strokeColor=#82b366;flipV=1;flipH=1;fontSize=18;" vertex="1" parent="1">
          <mxGeometry x="1610" y="-220" width="120" height="40" as="geometry" />
        </mxCell>
        <mxCell id="cndPCVQyq1sA_pVlq22v-235" style="edgeStyle=orthogonalEdgeStyle;rounded=0;orthogonalLoop=1;jettySize=auto;html=1;entryX=0;entryY=0.5;entryDx=0;entryDy=0;" edge="1" parent="1">
          <mxGeometry relative="1" as="geometry">
            <mxPoint x="1730" y="-200.2" as="sourcePoint" />
            <mxPoint x="1760" y="-200.2" as="targetPoint" />
          </mxGeometry>
        </mxCell>
        <mxCell id="cndPCVQyq1sA_pVlq22v-262" style="edgeStyle=orthogonalEdgeStyle;rounded=0;orthogonalLoop=1;jettySize=auto;html=1;entryX=0;entryY=0.5;entryDx=0;entryDy=0;exitX=1;exitY=0.5;exitDx=0;exitDy=0;" edge="1" parent="1" source="cndPCVQyq1sA_pVlq22v-239" target="cndPCVQyq1sA_pVlq22v-249">
          <mxGeometry relative="1" as="geometry" />
        </mxCell>
        <mxCell id="cndPCVQyq1sA_pVlq22v-239" value="S4&lt;br&gt;Block" style="rounded=1;whiteSpace=wrap;html=1;fillColor=#f8cecc;strokeColor=#b85450;flipV=1;flipH=1;fontSize=15;" vertex="1" parent="1">
          <mxGeometry x="785" y="-232.5" width="100" height="65" as="geometry" />
        </mxCell>
        <mxCell id="cndPCVQyq1sA_pVlq22v-264" style="edgeStyle=orthogonalEdgeStyle;rounded=0;orthogonalLoop=1;jettySize=auto;html=1;entryX=0;entryY=0.5;entryDx=0;entryDy=0;exitX=1;exitY=0.5;exitDx=0;exitDy=0;" edge="1" parent="1" source="cndPCVQyq1sA_pVlq22v-240" target="cndPCVQyq1sA_pVlq22v-250">
          <mxGeometry relative="1" as="geometry" />
        </mxCell>
        <mxCell id="cndPCVQyq1sA_pVlq22v-240" value="S4&lt;br&gt;Block" style="rounded=1;whiteSpace=wrap;html=1;fillColor=#f8cecc;strokeColor=#b85450;flipV=1;flipH=1;fontSize=15;" vertex="1" parent="1">
          <mxGeometry x="1060" y="-232.5" width="100" height="65" as="geometry" />
        </mxCell>
        <mxCell id="cndPCVQyq1sA_pVlq22v-266" style="edgeStyle=orthogonalEdgeStyle;rounded=0;orthogonalLoop=1;jettySize=auto;html=1;" edge="1" parent="1" source="cndPCVQyq1sA_pVlq22v-292" target="cndPCVQyq1sA_pVlq22v-251">
          <mxGeometry relative="1" as="geometry" />
        </mxCell>
        <mxCell id="cndPCVQyq1sA_pVlq22v-241" value="S4&lt;br&gt;Block" style="rounded=1;whiteSpace=wrap;html=1;fillColor=#f8cecc;strokeColor=#b85450;flipV=1;flipH=1;fontSize=15;" vertex="1" parent="1">
          <mxGeometry x="1347.5" y="-232.5" width="100" height="65" as="geometry" />
        </mxCell>
        <mxCell id="cndPCVQyq1sA_pVlq22v-243" value="" style="rounded=1;whiteSpace=wrap;html=1;fillColor=#f8cecc;strokeColor=#b85450;flipV=1;flipH=1;" vertex="1" parent="1">
          <mxGeometry x="690" y="-330" width="390" height="40" as="geometry" />
        </mxCell>
        <mxCell id="cndPCVQyq1sA_pVlq22v-261" style="edgeStyle=orthogonalEdgeStyle;rounded=0;orthogonalLoop=1;jettySize=auto;html=1;entryX=0;entryY=0.5;entryDx=0;entryDy=0;" edge="1" parent="1" source="cndPCVQyq1sA_pVlq22v-245" target="cndPCVQyq1sA_pVlq22v-239">
          <mxGeometry relative="1" as="geometry" />
        </mxCell>
        <mxCell id="cndPCVQyq1sA_pVlq22v-245" value="LayerNorm" style="rounded=1;whiteSpace=wrap;html=1;fillColor=#f5f5f5;strokeColor=#666666;flipV=1;flipH=1;fontColor=#333333;fontSize=14;" vertex="1" parent="1">
          <mxGeometry x="660" y="-210" width="80" height="20" as="geometry" />
        </mxCell>
        <mxCell id="cndPCVQyq1sA_pVlq22v-263" style="edgeStyle=orthogonalEdgeStyle;rounded=0;orthogonalLoop=1;jettySize=auto;html=1;entryX=0;entryY=0.5;entryDx=0;entryDy=0;" edge="1" parent="1" source="cndPCVQyq1sA_pVlq22v-249" target="cndPCVQyq1sA_pVlq22v-240">
          <mxGeometry relative="1" as="geometry" />
        </mxCell>
        <mxCell id="cndPCVQyq1sA_pVlq22v-249" value="LayerNorm" style="rounded=1;whiteSpace=wrap;html=1;fillColor=#f5f5f5;strokeColor=#666666;flipV=1;flipH=1;fontColor=#333333;fontSize=14;" vertex="1" parent="1">
          <mxGeometry x="935" y="-210" width="80" height="20" as="geometry" />
        </mxCell>
        <mxCell id="cndPCVQyq1sA_pVlq22v-265" style="edgeStyle=orthogonalEdgeStyle;rounded=0;orthogonalLoop=1;jettySize=auto;html=1;entryX=0;entryY=0.5;entryDx=0;entryDy=0;" edge="1" parent="1" source="cndPCVQyq1sA_pVlq22v-250" target="cndPCVQyq1sA_pVlq22v-241">
          <mxGeometry relative="1" as="geometry" />
        </mxCell>
        <mxCell id="cndPCVQyq1sA_pVlq22v-250" value="LayerNorm" style="rounded=1;whiteSpace=wrap;html=1;fillColor=#f5f5f5;strokeColor=#666666;flipV=1;flipH=1;fontColor=#333333;fontSize=14;" vertex="1" parent="1">
          <mxGeometry x="1220" y="-210" width="80" height="20" as="geometry" />
        </mxCell>
        <mxCell id="cndPCVQyq1sA_pVlq22v-267" style="edgeStyle=orthogonalEdgeStyle;rounded=0;orthogonalLoop=1;jettySize=auto;html=1;entryX=0;entryY=0.5;entryDx=0;entryDy=0;" edge="1" parent="1" source="cndPCVQyq1sA_pVlq22v-251" target="cndPCVQyq1sA_pVlq22v-231">
          <mxGeometry relative="1" as="geometry" />
        </mxCell>
        <mxCell id="cndPCVQyq1sA_pVlq22v-251" value="LayerNorm" style="rounded=1;whiteSpace=wrap;html=1;fillColor=#f5f5f5;strokeColor=#666666;flipV=1;flipH=1;fontColor=#333333;fontSize=14;" vertex="1" parent="1">
          <mxGeometry x="1490" y="-210" width="80" height="20" as="geometry" />
        </mxCell>
        <mxCell id="cndPCVQyq1sA_pVlq22v-254" value="S4Block" style="text;strokeColor=none;fillColor=none;align=left;verticalAlign=middle;spacingLeft=4;spacingRight=4;overflow=hidden;points=[[0,0.5],[1,0.5]];portConstraint=eastwest;rotatable=0;whiteSpace=wrap;html=1;" vertex="1" parent="1">
          <mxGeometry x="695" y="-350" width="80" height="30" as="geometry" />
        </mxCell>
        <mxCell id="cndPCVQyq1sA_pVlq22v-255" value="S4Layer" style="rounded=1;whiteSpace=wrap;html=1;fillColor=#f8cecc;strokeColor=#b85450;flipV=1;flipH=1;fontSize=14;" vertex="1" parent="1">
          <mxGeometry x="705" y="-320" width="80" height="20" as="geometry" />
        </mxCell>
        <mxCell id="cndPCVQyq1sA_pVlq22v-256" value="Dropout" style="rounded=1;whiteSpace=wrap;html=1;fillColor=#f5f5f5;strokeColor=#666666;flipV=1;flipH=1;fontSize=14;fontColor=#333333;" vertex="1" parent="1">
          <mxGeometry x="795" y="-320" width="80" height="20" as="geometry" />
        </mxCell>
        <mxCell id="cndPCVQyq1sA_pVlq22v-257" value="GeLU" style="rounded=1;whiteSpace=wrap;html=1;fillColor=#f8cecc;strokeColor=#b85450;flipV=1;flipH=1;fontSize=14;" vertex="1" parent="1">
          <mxGeometry x="885" y="-320" width="80" height="20" as="geometry" />
        </mxCell>
        <mxCell id="cndPCVQyq1sA_pVlq22v-258" value="TranspLinear" style="rounded=1;whiteSpace=wrap;html=1;fillColor=#d5e8d4;strokeColor=#82b366;flipV=1;flipH=1;fontSize=14;" vertex="1" parent="1">
          <mxGeometry x="975" y="-320" width="95" height="20" as="geometry" />
        </mxCell>
        <mxCell id="cndPCVQyq1sA_pVlq22v-268" style="edgeStyle=orthogonalEdgeStyle;rounded=0;orthogonalLoop=1;jettySize=auto;html=1;entryX=0.63;entryY=-0.006;entryDx=0;entryDy=0;entryPerimeter=0;dashed=1;" edge="1" parent="1" source="cndPCVQyq1sA_pVlq22v-239" target="cndPCVQyq1sA_pVlq22v-243">
          <mxGeometry relative="1" as="geometry" />
        </mxCell>
        <mxCell id="cndPCVQyq1sA_pVlq22v-269" value="" style="endArrow=none;html=1;rounded=0;" edge="1" parent="1">
          <mxGeometry width="50" height="50" relative="1" as="geometry">
            <mxPoint x="480" y="-200" as="sourcePoint" />
            <mxPoint x="480" y="-250" as="targetPoint" />
          </mxGeometry>
        </mxCell>
        <mxCell id="cndPCVQyq1sA_pVlq22v-271" value="" style="endArrow=none;html=1;rounded=0;" edge="1" parent="1">
          <mxGeometry width="50" height="50" relative="1" as="geometry">
            <mxPoint x="630" y="-200" as="sourcePoint" />
            <mxPoint x="630" y="-250" as="targetPoint" />
          </mxGeometry>
        </mxCell>
        <mxCell id="cndPCVQyq1sA_pVlq22v-272" value="" style="endArrow=none;html=1;rounded=0;" edge="1" parent="1">
          <mxGeometry width="50" height="50" relative="1" as="geometry">
            <mxPoint x="764.47" y="-200" as="sourcePoint" />
            <mxPoint x="764.47" y="-250" as="targetPoint" />
          </mxGeometry>
        </mxCell>
        <mxCell id="cndPCVQyq1sA_pVlq22v-273" value="" style="endArrow=none;html=1;rounded=0;" edge="1" parent="1">
          <mxGeometry width="50" height="50" relative="1" as="geometry">
            <mxPoint x="910" y="-200" as="sourcePoint" />
            <mxPoint x="910" y="-250" as="targetPoint" />
          </mxGeometry>
        </mxCell>
        <mxCell id="cndPCVQyq1sA_pVlq22v-274" value="" style="endArrow=none;html=1;rounded=0;" edge="1" parent="1">
          <mxGeometry width="50" height="50" relative="1" as="geometry">
            <mxPoint x="1034.74" y="-200" as="sourcePoint" />
            <mxPoint x="1034.74" y="-250" as="targetPoint" />
          </mxGeometry>
        </mxCell>
        <mxCell id="cndPCVQyq1sA_pVlq22v-275" value="" style="endArrow=none;html=1;rounded=0;" edge="1" parent="1">
          <mxGeometry width="50" height="50" relative="1" as="geometry">
            <mxPoint x="1180" y="-200" as="sourcePoint" />
            <mxPoint x="1180" y="-250" as="targetPoint" />
          </mxGeometry>
        </mxCell>
        <mxCell id="cndPCVQyq1sA_pVlq22v-276" value="" style="endArrow=none;html=1;rounded=0;" edge="1" parent="1">
          <mxGeometry width="50" height="50" relative="1" as="geometry">
            <mxPoint x="1320" y="-200" as="sourcePoint" />
            <mxPoint x="1320" y="-250" as="targetPoint" />
          </mxGeometry>
        </mxCell>
        <mxCell id="cndPCVQyq1sA_pVlq22v-277" value="" style="endArrow=none;html=1;rounded=0;" edge="1" parent="1">
          <mxGeometry width="50" height="50" relative="1" as="geometry">
            <mxPoint x="1465" y="-200" as="sourcePoint" />
            <mxPoint x="1465" y="-250" as="targetPoint" />
          </mxGeometry>
        </mxCell>
        <mxCell id="cndPCVQyq1sA_pVlq22v-278" value="" style="endArrow=none;html=1;rounded=0;" edge="1" parent="1">
          <mxGeometry width="50" height="50" relative="1" as="geometry">
            <mxPoint x="480" y="-250" as="sourcePoint" />
            <mxPoint x="630" y="-250" as="targetPoint" />
          </mxGeometry>
        </mxCell>
        <mxCell id="cndPCVQyq1sA_pVlq22v-279" value="" style="endArrow=none;html=1;rounded=0;" edge="1" parent="1">
          <mxGeometry width="50" height="50" relative="1" as="geometry">
            <mxPoint x="765" y="-250" as="sourcePoint" />
            <mxPoint x="910" y="-250" as="targetPoint" />
          </mxGeometry>
        </mxCell>
        <mxCell id="cndPCVQyq1sA_pVlq22v-280" value="" style="endArrow=none;html=1;rounded=0;" edge="1" parent="1">
          <mxGeometry width="50" height="50" relative="1" as="geometry">
            <mxPoint x="1035" y="-250" as="sourcePoint" />
            <mxPoint x="1180" y="-250" as="targetPoint" />
          </mxGeometry>
        </mxCell>
        <mxCell id="cndPCVQyq1sA_pVlq22v-281" value="" style="endArrow=none;html=1;rounded=0;" edge="1" parent="1">
          <mxGeometry width="50" height="50" relative="1" as="geometry">
            <mxPoint x="1320" y="-250" as="sourcePoint" />
            <mxPoint x="1465" y="-250" as="targetPoint" />
          </mxGeometry>
        </mxCell>
        <mxCell id="cndPCVQyq1sA_pVlq22v-282" value="&lt;font style=&quot;font-size: 12px;&quot;&gt;+&lt;/font&gt;" style="ellipse;whiteSpace=wrap;html=1;aspect=fixed;flipV=1;flipH=1;fontSize=12;align=center;verticalAlign=middle;spacingTop=0;spacing=2;" vertex="1" parent="1">
          <mxGeometry x="905" y="-205" width="10" height="10" as="geometry" />
        </mxCell>
        <mxCell id="cndPCVQyq1sA_pVlq22v-285" value="&lt;font style=&quot;font-size: 12px;&quot;&gt;+&lt;/font&gt;" style="ellipse;whiteSpace=wrap;html=1;aspect=fixed;flipV=1;flipH=1;fontSize=12;align=center;verticalAlign=middle;spacingTop=0;spacing=2;" vertex="1" parent="1">
          <mxGeometry x="1175" y="-205" width="10" height="10" as="geometry" />
        </mxCell>
        <mxCell id="cndPCVQyq1sA_pVlq22v-294" value="" style="edgeStyle=orthogonalEdgeStyle;rounded=0;orthogonalLoop=1;jettySize=auto;html=1;exitX=1;exitY=0.5;exitDx=0;exitDy=0;" edge="1" parent="1" source="cndPCVQyq1sA_pVlq22v-241" target="cndPCVQyq1sA_pVlq22v-251">
          <mxGeometry relative="1" as="geometry" />
        </mxCell>
        <mxCell id="cndPCVQyq1sA_pVlq22v-292" value="&lt;font style=&quot;font-size: 12px;&quot;&gt;+&lt;/font&gt;" style="ellipse;whiteSpace=wrap;html=1;aspect=fixed;flipV=1;flipH=1;fontSize=12;align=center;verticalAlign=middle;spacingTop=0;spacing=2;" vertex="1" parent="1">
          <mxGeometry x="1460" y="-205" width="10" height="10" as="geometry" />
        </mxCell>
        <mxCell id="cndPCVQyq1sA_pVlq22v-295" value="&lt;font style=&quot;font-size: 12px;&quot;&gt;+&lt;/font&gt;" style="ellipse;whiteSpace=wrap;html=1;aspect=fixed;flipV=1;flipH=1;fontSize=12;align=center;verticalAlign=middle;spacingTop=0;spacing=2;" vertex="1" parent="1">
          <mxGeometry x="625" y="-205" width="10" height="10" as="geometry" />
        </mxCell>
        <mxCell id="cndPCVQyq1sA_pVlq22v-297" value="" style="endArrow=classic;html=1;rounded=0;entryX=0;entryY=0.5;entryDx=0;entryDy=0;endSize=3;" edge="1" parent="1">
          <mxGeometry width="50" height="50" relative="1" as="geometry">
            <mxPoint x="695" y="-310.13" as="sourcePoint" />
            <mxPoint x="705" y="-310.13" as="targetPoint" />
          </mxGeometry>
        </mxCell>
        <mxCell id="cndPCVQyq1sA_pVlq22v-298" value="" style="endArrow=classic;html=1;rounded=0;entryX=0;entryY=0.5;entryDx=0;entryDy=0;endSize=3;" edge="1" parent="1">
          <mxGeometry width="50" height="50" relative="1" as="geometry">
            <mxPoint x="875" y="-310.13" as="sourcePoint" />
            <mxPoint x="885" y="-310.13" as="targetPoint" />
          </mxGeometry>
        </mxCell>
        <mxCell id="cndPCVQyq1sA_pVlq22v-299" value="" style="endArrow=classic;html=1;rounded=0;entryX=0;entryY=0.5;entryDx=0;entryDy=0;endSize=3;" edge="1" parent="1">
          <mxGeometry width="50" height="50" relative="1" as="geometry">
            <mxPoint x="785" y="-310.13" as="sourcePoint" />
            <mxPoint x="795" y="-310.13" as="targetPoint" />
          </mxGeometry>
        </mxCell>
        <mxCell id="cndPCVQyq1sA_pVlq22v-300" value="" style="endArrow=classic;html=1;rounded=0;entryX=0;entryY=0.5;entryDx=0;entryDy=0;endSize=3;" edge="1" parent="1">
          <mxGeometry width="50" height="50" relative="1" as="geometry">
            <mxPoint x="965" y="-310.13" as="sourcePoint" />
            <mxPoint x="975" y="-310.13" as="targetPoint" />
          </mxGeometry>
        </mxCell>
        <mxCell id="cndPCVQyq1sA_pVlq22v-301" value="" style="endArrow=classic;html=1;rounded=0;entryX=0;entryY=0.5;entryDx=0;entryDy=0;endSize=3;" edge="1" parent="1">
          <mxGeometry width="50" height="50" relative="1" as="geometry">
            <mxPoint x="1070" y="-310.21999999999997" as="sourcePoint" />
            <mxPoint x="1080" y="-310.21999999999997" as="targetPoint" />
          </mxGeometry>
        </mxCell>
        <mxCell id="cndPCVQyq1sA_pVlq22v-302" value="LayerNorm" style="rounded=1;whiteSpace=wrap;html=1;flipV=1;flipH=1;fillColor=#f5f5f5;fontColor=#333333;strokeColor=#666666;fontSize=15;" vertex="1" parent="1">
          <mxGeometry x="1490" y="-215" width="80" height="30" as="geometry" />
        </mxCell>
        <mxCell id="cndPCVQyq1sA_pVlq22v-303" value="LayerNorm" style="rounded=1;whiteSpace=wrap;html=1;flipV=1;flipH=1;fillColor=#f5f5f5;fontColor=#333333;strokeColor=#666666;fontSize=15;" vertex="1" parent="1">
          <mxGeometry x="1220" y="-215" width="80" height="30" as="geometry" />
        </mxCell>
        <mxCell id="cndPCVQyq1sA_pVlq22v-304" value="LayerNorm" style="rounded=1;whiteSpace=wrap;html=1;flipV=1;flipH=1;fillColor=#f5f5f5;fontColor=#333333;strokeColor=#666666;fontSize=15;" vertex="1" parent="1">
          <mxGeometry x="935" y="-215" width="80" height="30" as="geometry" />
        </mxCell>
        <mxCell id="cndPCVQyq1sA_pVlq22v-305" value="LayerNorm" style="rounded=1;whiteSpace=wrap;html=1;flipV=1;flipH=1;fillColor=#f5f5f5;fontColor=#333333;strokeColor=#666666;fontSize=15;" vertex="1" parent="1">
          <mxGeometry x="660" y="-215" width="80" height="30" as="geometry" />
        </mxCell>
      </root>
    </mxGraphModel>
  </diagram>
</mxfile>
